<svg viewBox="0 0 35 16" xmlns="http://www.w3.org/2000/svg"><path d="m24.1137778 14.9536137-.2178462.798906c0 .1453675-.1453675.2179829-.2905983.2179829h-23.31473501c-.07275214 0-.21798291-.0726154-.21798291-.2179829-.07261538-.2904616-.07261538-.5084445-.07261538-.798906 0-2.9052992 2.32423932-5.22953849 5.15692308-5.30215387-.07275214-.43569231-.14536752-.87152137-.07275214-1.30735043.21798291-1.74317949 1.59794872-3.19576068 3.34112821-3.34099145 1.01688888-.07275214 1.88841025.21784615 2.61470085.7262906 1.0895043-3.26851282 4.2126496-5.59275214 7.8442393-5.59275214 3.9221881 0 7.2631795 2.76006838 8.0622222 6.4642735.0726154.07261539 0 .14523077 0 .21798291l-.7264273 1.88841026c-.5809231 1.45258122-2.1788718 2.68731622-3.7042051 2.75993162l-12.71056414.1452308c-.14523077 0-.21784616.0727521-.29046154.2179829-.07261539.0726154-.07261539.1452307 0 .2178461.07261538 0 .14523077.0726154.21784615.0726154l12.63794873.1453675c.6536752.0726154 1.1621196.363077 1.5253333.798906.3630769.4358291.4356923 1.1621197.2178462 1.8884103zm3.9947487-8.13476926c3.7768205 0 6.8999658 3.1231453 6.8999658 6.89996586 0 .6538119-.1452308 1.3074871-.2904615 1.888547 0 .1452307-.0726154.2178461-.2178462.2178461h-9.5874188c-.1453675 0-.2179829-.1452308-.1453675-.2178461l.1453675-.653812c.5810598-1.4525812 2.1788718-2.6873162 3.7042051-2.7599316l2.7599317-.1452308c.1453675 0 .2179829-.0726154.2905983-.2179829.0726153-.0726154.0726153-.1452308 0-.2178462-.0726154 0-.1452308-.0726153-.2178462-.0726153l-2.687453-.1452308c-.6536752-.0727521-1.1621196-.3632137-1.5251966-.7990427-.3632136-.4356924-.435829-1.1621197-.2179829-1.8884103l.5084445-1.74317949c.0726154-.07261538.1452307-.14523077.2178461-.14523077z" fill="#fff"/></svg>